<svg width="35" height="36" viewBox="0 0 35 36" fill="none" xmlns="http://www.w3.org/2000/svg">
<g clip-path="url(#clip0_2_52)">
<path d="M26.5534 20.2867L25.06 18.7933C24.717 18.424 24.5182 17.9437 24.5 17.44V14.5C24.5 10.72 21.98 7.5 17.5 7.5C13.02 7.5 10.5 10.6267 10.5 14.5V17.7667C10.4914 18.0621 10.3752 18.3442 10.1734 18.56L8.44669 20.2867C8.27083 20.459 8.17019 20.6938 8.16669 20.94V24.3C8.16669 24.5475 8.26502 24.7849 8.44005 24.96C8.61509 25.135 8.85249 25.2333 9.10002 25.2333H14.28C14.4099 25.9933 14.8043 26.6828 15.3936 27.18C15.9829 27.6771 16.729 27.9498 17.5 27.9498C18.271 27.9498 19.0171 27.6771 19.6064 27.18C20.1957 26.6828 20.5902 25.9933 20.72 25.2333H25.9C26.1476 25.2333 26.385 25.135 26.56 24.96C26.735 24.7849 26.8334 24.5475 26.8334 24.3V20.94C26.8298 20.6938 26.7292 20.459 26.5534 20.2867Z" fill="white"/>
</g>
<rect x="0.5" y="1" width="34" height="34" rx="9.5" stroke="white"/>
<defs>
<clipPath id="clip0_2_52">
<rect y="0.5" width="35" height="35" rx="10" fill="white"/>
</clipPath>
</defs>
</svg>
