<?xml version="1.0" encoding="UTF-8" ?>
<!DOCTYPE svg PUBLIC "-//W3C//DTD SVG 1.1//EN" "http://www.w3.org/Graphics/SVG/1.1/DTD/svg11.dtd">
<svg width="667pt" height="586pt" viewBox="0 0 667 586" version="1.1" xmlns="http://www.w3.org/2000/svg">
<path fill="#000000" opacity="1.00" d=" M 144.72 206.20 C 196.69 130.42 285.56 83.68 376.35 76.26 C 450.45 69.64 528.13 96.97 578.01 152.99 C 630.33 212.49 654.59 300.60 627.92 376.65 C 639.61 381.39 652.56 386.57 658.24 398.85 C 664.25 410.74 657.07 424.25 646.68 430.68 C 623.40 445.88 594.36 446.51 567.87 450.69 C 518.30 484.04 457.89 497.28 398.97 499.97 C 322.21 503.07 239.87 493.26 175.97 447.04 C 141.09 422.50 117.08 383.22 111.66 340.85 C 86.14 355.56 60.94 370.90 35.86 386.34 C 25.86 364.43 19.02 340.30 11.12 317.24 C 35.75 311.02 61.21 306.89 85.34 299.27 C 59.43 292.55 33.48 285.72 7.90 277.82 C 18.04 256.07 28.55 234.46 39.07 212.93 C 65.57 228.95 90.59 247.60 116.93 264.00 C 121.34 254.49 112.77 244.10 117.91 234.20 C 106.35 220.67 99.27 202.63 104.26 184.77 C 116.58 193.92 130.18 201.27 144.72 206.20 M 340.86 102.90 C 272.28 117.38 207.04 155.53 166.16 213.10 C 167.22 213.05 168.28 212.96 169.34 212.82 C 172.63 215.83 177.28 215.92 181.47 216.21 C 196.47 221.22 212.46 222.47 227.76 226.45 C 248.08 228.67 267.69 234.68 287.47 239.53 C 322.58 249.10 362.30 268.87 369.92 308.19 C 348.70 273.74 309.12 255.94 270.08 251.86 C 228.23 245.89 185.50 241.74 145.86 226.08 C 157.22 245.73 179.70 254.68 200.09 261.91 C 222.76 270.65 246.81 275.09 270.63 279.28 L 270.87 280.09 C 226.03 280.74 178.08 276.20 140.27 249.71 C 153.56 271.19 179.42 277.92 201.95 285.09 C 230.06 291.36 258.64 296.52 287.55 296.30 C 268.17 302.63 246.62 299.24 226.47 299.80 C 201.31 295.91 174.55 295.01 151.95 281.98 C 165.87 300.53 189.97 306.23 211.46 310.51 C 240.91 315.16 270.77 315.62 300.51 317.54 C 255.39 326.77 206.46 328.12 162.97 311.05 C 150.73 305.48 137.84 296.39 133.83 282.89 C 128.21 307.69 130.05 333.79 136.83 358.18 C 137.12 358.39 137.71 358.81 138.01 359.02 C 148.16 400.83 184.08 432.35 221.94 450.06 C 269.85 472.22 323.37 479.94 375.76 479.64 C 424.30 479.07 473.93 473.39 518.75 453.61 C 498.53 454.28 478.31 453.77 458.09 454.05 C 450.44 457.14 443.53 466.63 434.41 461.89 C 429.80 457.64 431.82 449.99 436.96 446.98 C 449.48 441.77 458.40 429.44 461.75 416.47 C 464.35 398.33 454.79 381.10 442.66 368.43 C 437.11 364.35 429.86 359.91 431.93 351.82 C 439.30 342.84 449.35 351.91 455.80 356.85 C 504.82 359.24 554.29 359.11 602.53 369.49 C 608.30 371.88 609.50 365.01 609.89 360.86 C 628.22 303.72 612.89 238.25 579.30 189.39 C 529.42 112.52 427.71 81.55 340.86 102.90 M 477.93 379.05 C 484.69 391.82 485.57 406.02 483.22 420.16 C 481.62 424.35 480.10 428.57 478.85 432.88 C 510.74 433.39 542.83 433.31 574.42 428.36 C 595.83 425.95 619.37 424.24 637.33 411.11 C 642.06 407.98 635.08 404.15 633.19 401.76 L 632.45 402.06 C 621.15 394.80 607.56 392.30 594.65 389.35 C 556.14 382.41 517.03 378.97 477.93 379.05 Z" />
<path fill="#fbd6db" opacity="1.00" d=" M 340.86 102.90 C 427.71 81.55 529.42 112.52 579.30 189.39 C 499.71 116.96 377.02 107.11 281.12 149.99 C 272.65 136.20 247.72 144.17 252.59 160.86 C 222.79 174.60 195.19 192.73 169.34 212.82 C 168.28 212.96 167.22 213.05 166.16 213.10 C 207.04 155.53 272.28 117.38 340.86 102.90 M 273.97 130.01 C 357.70 106.78 450.37 106.58 530.07 143.98 C 456.57 90.47 354.50 94.69 273.97 130.01 Z" />
<path fill="#ffffff" opacity="1.00" d=" M 273.97 130.01 C 354.50 94.69 456.57 90.47 530.07 143.98 C 450.37 106.58 357.70 106.78 273.97 130.01 Z" />
<path fill="#f59cb0" opacity="1.00" d=" M 281.12 149.99 C 377.02 107.11 499.71 116.96 579.30 189.39 C 612.89 238.25 628.22 303.72 609.89 360.86 C 607.52 363.80 604.95 366.59 602.53 369.49 C 554.29 359.11 504.82 359.24 455.80 356.85 C 449.35 351.91 439.30 342.84 431.93 351.82 C 429.86 359.91 437.11 364.35 442.66 368.43 C 454.79 381.10 464.35 398.33 461.75 416.47 C 458.40 429.44 449.48 441.77 436.96 446.98 C 413.06 439.74 392.99 422.49 368.24 417.53 C 349.98 414.11 336.41 431.39 318.25 429.08 C 301.99 426.25 288.97 414.60 273.05 410.72 C 263.15 407.32 255.27 416.61 245.55 415.79 C 231.49 410.95 224.89 395.63 212.27 388.55 C 202.80 384.45 193.22 391.71 183.57 390.77 C 166.03 384.06 152.67 370.21 138.01 359.02 C 137.71 358.81 137.12 358.39 136.83 358.18 C 130.05 333.79 128.21 307.69 133.83 282.89 C 137.84 296.39 150.73 305.48 162.97 311.05 C 206.46 328.12 255.39 326.77 300.51 317.54 C 270.77 315.62 240.91 315.16 211.46 310.51 C 189.97 306.23 165.87 300.53 151.95 281.98 C 174.55 295.01 201.31 295.91 226.47 299.80 C 246.62 299.24 268.17 302.63 287.55 296.30 C 258.64 296.52 230.06 291.36 201.95 285.09 C 179.42 277.92 153.56 271.19 140.27 249.71 C 178.08 276.20 226.03 280.74 270.87 280.09 L 270.63 279.28 C 246.81 275.09 222.76 270.65 200.09 261.91 C 179.70 254.68 157.22 245.73 145.86 226.08 C 185.50 241.74 228.23 245.89 270.08 251.86 C 309.12 255.94 348.70 273.74 369.92 308.19 C 362.30 268.87 322.58 249.10 287.47 239.53 C 267.69 234.68 248.08 228.67 227.76 226.45 C 236.35 213.95 245.83 200.44 245.91 184.63 C 245.57 176.31 236.44 174.67 230.07 176.89 C 209.91 184.09 195.12 200.47 181.47 216.21 C 177.28 215.92 172.63 215.83 169.34 212.82 C 195.19 192.73 222.79 174.60 252.59 160.86 C 259.69 177.32 288.69 168.63 281.12 149.99 M 400.04 191.82 C 405.11 206.14 422.92 213.06 436.66 206.82 C 453.03 202.79 464.32 188.38 479.71 182.96 C 485.08 191.12 480.45 206.32 492.23 210.05 C 512.77 216.22 528.17 197.17 537.90 181.89 C 526.35 187.88 513.46 197.87 499.86 192.48 C 489.38 183.45 502.49 170.11 500.66 159.28 C 482.04 161.36 467.09 175.25 450.03 182.02 C 439.64 186.17 426.48 196.18 415.88 187.87 C 412.42 173.56 424.22 161.50 430.85 149.99 C 416.34 159.24 397.79 172.31 400.04 191.82 M 424.92 260.94 C 446.16 232.47 493.63 232.70 515.14 260.85 C 508.76 239.70 485.91 223.70 463.63 228.11 C 445.40 229.59 430.36 243.92 424.92 260.94 M 534.91 263.92 C 550.73 236.95 592.73 236.28 607.94 264.07 C 603.90 246.11 588.29 228.50 568.38 231.04 C 550.91 232.39 539.73 248.50 534.91 263.92 M 462.74 257.48 C 440.42 261.15 422.31 283.71 426.03 306.63 C 427.81 335.16 462.40 355.40 488.09 342.03 C 512.56 332.76 521.89 299.57 507.80 278.13 C 498.83 263.02 480.05 254.42 462.74 257.48 M 563.80 264.46 C 528.28 273.15 525.52 331.73 559.96 344.03 C 583.44 353.47 606.71 328.92 605.13 305.90 C 607.92 283.58 587.30 259.13 563.80 264.46 Z" />
<path fill="#ffffff" opacity="1.00" d=" M 252.59 160.86 C 247.72 144.17 272.65 136.20 281.12 149.99 C 288.69 168.63 259.69 177.32 252.59 160.86 Z" />
<path fill="#ffffff" opacity="1.00" d=" M 400.04 191.82 C 397.79 172.31 416.34 159.24 430.85 149.99 C 424.22 161.50 412.42 173.56 415.88 187.87 C 426.48 196.18 439.64 186.17 450.03 182.02 C 467.09 175.25 482.04 161.36 500.66 159.28 C 502.49 170.11 489.38 183.45 499.86 192.48 C 513.46 197.87 526.35 187.88 537.90 181.89 C 528.17 197.17 512.77 216.22 492.23 210.05 C 480.45 206.32 485.08 191.12 479.71 182.96 C 464.32 188.38 453.03 202.79 436.66 206.82 C 422.92 213.06 405.11 206.14 400.04 191.82 Z" />
<path fill="#ffffff" opacity="1.00" d=" M 230.07 176.89 C 236.44 174.67 245.57 176.31 245.91 184.63 C 245.83 200.44 236.35 213.95 227.76 226.45 C 212.46 222.47 196.47 221.22 181.47 216.21 C 195.12 200.47 209.91 184.09 230.07 176.89 Z" />
<path fill="#000000" opacity="1.00" d=" M 424.92 260.94 C 430.36 243.92 445.40 229.59 463.63 228.11 C 485.91 223.70 508.76 239.70 515.14 260.85 C 493.63 232.70 446.16 232.47 424.92 260.94 Z" />
<path fill="#000000" opacity="1.00" d=" M 534.91 263.92 C 539.73 248.50 550.91 232.39 568.38 231.04 C 588.29 228.50 603.90 246.11 607.94 264.07 C 592.73 236.28 550.73 236.95 534.91 263.92 Z" />
<path fill="#ffffff" opacity="1.00" d=" M 462.74 257.48 C 480.05 254.42 498.83 263.02 507.80 278.13 C 521.89 299.57 512.56 332.76 488.09 342.03 C 462.40 355.40 427.81 335.16 426.03 306.63 C 422.31 283.71 440.42 261.15 462.74 257.48 M 479.02 288.49 C 468.02 291.69 462.81 307.29 471.32 315.67 C 478.72 327.89 500.88 322.54 501.55 308.17 C 505.59 295.11 490.95 284.37 479.02 288.49 Z" />
<path fill="#ffffff" opacity="1.00" d=" M 563.80 264.46 C 587.30 259.13 607.92 283.58 605.13 305.90 C 606.71 328.92 583.44 353.47 559.96 344.03 C 525.52 331.73 528.28 273.15 563.80 264.46 M 549.77 290.39 C 538.01 295.44 538.52 316.75 551.44 319.87 C 569.34 320.82 568.11 286.22 549.77 290.39 Z" />
<path fill="#000000" opacity="1.00" d=" M 479.02 288.49 C 490.95 284.37 505.59 295.11 501.55 308.17 C 500.88 322.54 478.72 327.89 471.32 315.67 C 462.81 307.29 468.02 291.69 479.02 288.49 Z" />
<path fill="#000000" opacity="1.00" d=" M 549.77 290.39 C 568.11 286.22 569.34 320.82 551.44 319.87 C 538.52 316.75 538.01 295.44 549.77 290.39 Z" />
<path fill="#f276a0" opacity="1.00" d=" M 138.01 359.02 C 152.67 370.21 166.03 384.06 183.57 390.77 C 193.22 391.71 202.80 384.45 212.27 388.55 C 224.89 395.63 231.49 410.95 245.55 415.79 C 255.27 416.61 263.15 407.32 273.05 410.72 C 288.97 414.60 301.99 426.25 318.25 429.08 C 336.41 431.39 349.98 414.11 368.24 417.53 C 392.99 422.49 413.06 439.74 436.96 446.98 C 431.82 449.99 429.80 457.64 434.41 461.89 C 443.53 466.63 450.44 457.14 458.09 454.05 C 478.31 453.77 498.53 454.28 518.75 453.61 C 473.93 473.39 424.30 479.07 375.76 479.64 C 323.37 479.94 269.85 472.22 221.94 450.06 C 184.08 432.35 148.16 400.83 138.01 359.02 Z" />
<path fill="#f277a0" opacity="1.00" d=" M 602.53 369.49 C 604.95 366.59 607.52 363.80 609.89 360.86 C 609.50 365.01 608.30 371.88 602.53 369.49 Z" />
<path fill="#faaf40" opacity="1.00" d=" M 477.93 379.05 C 517.03 378.97 556.14 382.41 594.65 389.35 C 607.56 392.30 621.15 394.80 632.45 402.06 C 585.13 420.29 533.01 417.25 483.22 420.16 C 485.57 406.02 484.69 391.82 477.93 379.05 M 489.85 391.86 C 505.83 399.64 525.73 397.13 542.30 392.49 C 537.74 381.95 521.27 386.01 512.24 384.93 C 505.74 386.42 492.65 383.77 489.85 391.86 Z" />
<path fill="#ffffff" opacity="1.00" d=" M 489.85 391.86 C 492.65 383.77 505.74 386.42 512.24 384.93 C 521.27 386.01 537.74 381.95 542.30 392.49 C 525.73 397.13 505.83 399.64 489.85 391.86 Z" />
<path fill="#f05a28" opacity="1.00" d=" M 632.45 402.06 L 633.19 401.76 C 635.08 404.15 642.06 407.98 637.33 411.11 C 619.37 424.24 595.83 425.95 574.42 428.36 C 542.83 433.31 510.74 433.39 478.85 432.88 C 480.10 428.57 481.62 424.35 483.22 420.16 C 533.01 417.25 585.13 420.29 632.45 402.06 Z" />
</svg>
