<?xml version="1.0" encoding="UTF-8" ?>
<!DOCTYPE svg PUBLIC "-//W3C//DTD SVG 1.1//EN" "http://www.w3.org/Graphics/SVG/1.1/DTD/svg11.dtd">
<svg width="762pt" height="603pt" viewBox="0 0 762 603" version="1.1" xmlns="http://www.w3.org/2000/svg">
<path fill="#000000" opacity="1.00" d=" M 410.97 53.96 C 423.15 21.01 463.54 4.65 495.88 16.18 C 537.01 33.63 578.24 50.83 619.10 68.90 C 651.14 83.67 664.60 126.22 649.38 157.48 C 643.49 174.49 633.45 190.21 629.09 207.58 C 643.35 214.14 658.28 219.27 672.15 226.71 C 665.65 238.31 662.18 251.33 656.04 263.11 C 653.91 262.50 651.79 261.88 649.67 261.29 C 660.60 292.59 663.52 325.79 662.22 358.77 C 695.03 367.43 727.17 378.60 758.26 392.24 C 715.84 411.98 671.98 428.66 627.68 443.63 C 556.33 521.54 440.19 533.21 341.04 523.11 C 338.94 533.01 336.47 542.87 335.64 552.99 C 316.08 548.70 297.74 534.87 293.48 514.53 C 284.94 512.73 276.78 509.48 268.20 507.84 C 259.92 521.37 257.61 537.54 255.64 553.00 C 231.02 548.37 209.48 526.10 212.77 499.94 C 205.19 490.80 200.85 479.78 195.49 469.52 C 157.63 441.32 135.58 395.59 132.69 348.91 C 112.39 362.26 93.46 377.69 73.31 391.30 C 63.00 376.76 52.02 362.71 41.93 348.02 C 64.15 335.57 86.46 323.23 109.05 311.47 C 76.04 311.30 43.17 316.59 10.10 317.14 C 8.33 298.80 8.94 280.33 9.17 261.93 C 41.30 264.90 73.36 269.91 105.25 274.87 C 78.38 258.18 50.68 242.70 23.42 226.63 C 22.26 225.74 20.22 224.25 21.75 222.75 C 30.14 209.24 36.59 194.66 43.50 180.37 C 43.88 178.53 45.96 178.95 47.11 179.79 C 81.17 208.08 114.48 238.65 148.84 265.80 C 182.98 192.65 252.76 139.20 329.40 115.62 C 339.50 110.08 339.29 96.04 345.18 86.87 C 359.86 92.39 373.74 101.38 389.48 102.92 C 397.78 87.23 403.23 70.01 410.97 53.96 M 433.40 57.24 L 432.72 57.40 C 429.35 65.62 425.56 73.68 422.39 81.98 C 418.49 91.48 413.78 100.72 410.97 110.62 C 477.49 138.18 543.48 167.03 609.87 194.88 C 613.76 186.02 617.77 177.21 621.17 168.14 C 625.23 160.30 627.72 151.73 632.02 144.00 L 631.77 143.25 C 640.23 121.26 626.87 93.97 604.87 86.14 C 568.49 69.90 531.43 55.20 495.01 39.04 C 473.65 27.43 445.04 35.91 433.40 57.24 M 343.29 133.26 C 281.23 151.45 223.64 188.79 186.63 242.37 C 158.56 282.07 144.95 334.50 160.16 381.79 C 165.73 404.44 178.87 424.94 195.36 441.28 C 203.42 431.85 191.09 420.11 193.78 409.09 C 193.30 393.22 204.59 379.61 218.86 373.85 C 260.08 357.59 308.69 364.37 346.26 338.21 C 314.42 369.40 266.76 370.32 229.27 391.26 C 218.64 396.67 210.86 408.04 214.21 420.37 C 214.83 420.48 216.07 420.68 216.69 420.78 C 241.56 392.81 280.53 383.54 316.26 379.16 C 289.42 391.11 262.19 403.40 239.58 422.57 C 225.95 434.13 212.79 450.97 217.18 470.12 C 235.08 432.96 274.06 413.26 312.16 403.11 C 283.05 423.50 251.42 444.69 235.94 478.00 C 229.34 491.62 233.01 507.90 243.71 518.18 C 251.03 456.52 314.15 427.18 359.02 395.03 C 381.24 379.00 400.73 355.85 403.77 327.70 C 409.90 349.77 404.08 374.83 389.23 392.25 C 370.82 414.88 345.60 430.16 322.78 447.81 C 306.85 459.50 291.70 472.68 280.03 488.73 C 332.62 505.31 389.10 508.17 443.68 502.68 C 493.20 497.94 543.54 485.13 584.11 455.07 C 571.81 456.28 559.17 456.81 547.17 453.30 C 529.27 449.58 511.98 437.00 508.38 418.31 C 505.65 392.33 519.55 363.67 544.76 353.74 C 575.61 342.16 609.57 347.86 641.01 354.01 C 637.52 340.94 648.45 313.68 634.02 308.86 C 634.00 317.91 633.98 326.97 633.90 336.03 C 625.83 336.09 617.76 335.77 609.73 335.18 C 609.92 326.71 611.06 317.71 609.38 309.66 C 600.96 307.44 590.94 309.67 582.02 309.04 C 576.67 309.01 571.34 308.99 566.01 308.98 C 565.97 300.99 565.96 293.00 566.01 285.01 C 588.71 284.84 611.42 285.27 634.13 284.82 C 631.33 272.72 628.17 259.81 621.69 249.26 C 545.40 216.24 468.63 183.60 392.09 151.46 C 384.15 148.11 376.36 143.73 368.22 141.26 C 364.78 139.42 361.21 137.75 357.41 136.78 L 358.27 136.82 C 353.51 135.04 348.54 130.59 343.29 133.26 M 575.76 363.79 C 550.60 361.62 525.85 381.24 524.69 406.75 C 519.77 429.16 547.17 439.35 565.04 439.99 C 610.01 436.87 651.75 417.97 693.49 402.38 C 681.13 403.93 668.58 403.82 656.35 406.34 C 627.22 409.87 593.90 406.10 568.09 422.10 C 565.28 422.20 562.40 422.10 559.65 421.71 C 559.81 412.89 568.07 408.35 575.21 405.18 C 620.14 391.77 667.73 394.17 714.05 391.41 C 669.11 377.84 623.53 360.17 575.76 363.79 Z" />
<path fill="#ed7c31" opacity="1.00" d=" M 433.40 57.24 C 445.04 35.91 473.65 27.43 495.01 39.04 C 531.43 55.20 568.49 69.90 604.87 86.14 C 626.87 93.97 640.23 121.26 631.77 143.25 C 629.47 135.68 625.64 128.69 621.29 122.11 C 625.54 116.78 623.53 109.89 618.20 105.84 C 605.39 95.94 588.24 87.94 571.80 92.98 C 541.92 80.26 512.10 67.39 482.14 54.87 C 466.27 47.90 448.94 51.48 433.40 57.24 Z" />
<path fill="#d6562b" opacity="1.00" d=" M 433.40 57.24 C 448.94 51.48 466.27 47.90 482.14 54.87 C 512.10 67.39 541.92 80.26 571.80 92.98 C 570.97 97.01 569.67 101.65 573.12 104.83 C 585.10 117.69 603.72 125.35 621.29 122.11 C 625.64 128.69 629.47 135.68 631.77 143.25 L 632.02 144.00 C 627.72 151.73 625.23 160.30 621.17 168.14 C 555.32 138.59 487.45 112.88 422.39 81.98 C 425.56 73.68 429.35 65.62 432.72 57.40 L 433.40 57.24 Z" />
<path fill="#b55232" opacity="1.00" d=" M 410.97 110.62 C 413.78 100.72 418.49 91.48 422.39 81.98 C 487.45 112.88 555.32 138.59 621.17 168.14 C 617.77 177.21 613.76 186.02 609.87 194.88 C 543.48 167.03 477.49 138.18 410.97 110.62 Z" />
<path fill="#ffffff" opacity="1.00" d=" M 571.80 92.98 C 588.24 87.94 605.39 95.94 618.20 105.84 C 623.53 109.89 625.54 116.78 621.29 122.11 C 603.72 125.35 585.10 117.69 573.12 104.83 C 569.67 101.65 570.97 97.01 571.80 92.98 Z" />
<path fill="#e5d3bd" opacity="1.00" d=" M 343.29 133.26 C 348.54 130.59 353.51 135.04 358.27 136.82 L 357.41 136.78 C 335.53 140.36 313.77 147.04 293.87 156.97 C 318.12 149.38 343.25 145.58 368.22 141.26 C 376.36 143.73 384.15 148.11 392.09 151.46 C 316.47 161.22 246.01 195.56 186.63 242.37 C 223.64 188.79 281.23 151.45 343.29 133.26 Z" />
<path fill="#ffffff" opacity="1.00" d=" M 293.87 156.97 C 313.77 147.04 335.53 140.36 357.41 136.78 C 361.21 137.75 364.78 139.42 368.22 141.26 C 343.25 145.58 318.12 149.38 293.87 156.97 Z" />
<path fill="#c7b29e" opacity="1.00" d=" M 392.09 151.46 C 468.63 183.60 545.40 216.24 621.69 249.26 C 628.17 259.81 631.33 272.72 634.13 284.82 C 611.42 285.27 588.71 284.84 566.01 285.01 C 565.96 293.00 565.97 300.99 566.01 308.98 C 571.34 308.99 576.67 309.01 582.02 309.04 C 581.99 317.67 582.01 326.31 582.08 334.96 C 591.29 334.98 600.51 334.87 609.73 335.18 C 617.76 335.77 625.83 336.09 633.90 336.03 C 633.98 326.97 634.00 317.91 634.02 308.86 C 648.45 313.68 637.52 340.94 641.01 354.01 C 609.57 347.86 575.61 342.16 544.76 353.74 C 519.55 363.67 505.65 392.33 508.38 418.31 C 511.98 437.00 529.27 449.58 547.17 453.30 C 528.59 465.31 505.75 469.35 484.30 473.47 C 442.57 482.72 411.55 429.71 369.85 446.74 C 355.60 455.84 337.37 456.97 322.78 447.81 C 345.60 430.16 370.82 414.88 389.23 392.25 C 404.08 374.83 409.90 349.77 403.77 327.70 C 400.73 355.85 381.24 379.00 359.02 395.03 C 314.15 427.18 251.03 456.52 243.71 518.18 C 233.01 507.90 229.34 491.62 235.94 478.00 C 251.42 444.69 283.05 423.50 312.16 403.11 C 274.06 413.26 235.08 432.96 217.18 470.12 C 212.79 450.97 225.95 434.13 239.58 422.57 C 262.19 403.40 289.42 391.11 316.26 379.16 C 280.53 383.54 241.56 392.81 216.69 420.78 C 216.07 420.68 214.83 420.48 214.21 420.37 C 210.86 408.04 218.64 396.67 229.27 391.26 C 266.76 370.32 314.42 369.40 346.26 338.21 C 308.69 364.37 260.08 357.59 218.86 373.85 C 204.59 379.61 193.30 393.22 193.78 409.09 C 181.54 401.37 170.10 392.32 160.16 381.79 C 144.95 334.50 158.56 282.07 186.63 242.37 C 246.01 195.56 316.47 161.22 392.09 151.46 M 342.77 172.53 C 335.16 173.96 321.55 178.40 326.24 188.45 C 338.83 196.49 359.61 193.92 369.30 182.09 C 371.70 168.47 350.44 172.12 342.77 172.53 M 292.73 189.46 C 286.11 190.93 277.47 195.21 277.05 202.73 C 285.62 208.94 300.28 202.47 304.78 193.60 C 306.06 187.26 296.23 188.82 292.73 189.46 M 363.92 192.50 C 359.67 193.14 353.57 195.55 356.29 201.32 C 364.73 207.51 377.28 207.48 385.73 201.33 C 388.49 189.48 370.73 192.14 363.92 192.50 M 321.43 199.59 C 314.83 200.70 301.51 204.18 306.13 212.82 C 314.43 216.18 326.86 213.72 332.51 206.24 C 335.43 199.65 325.82 198.58 321.43 199.59 M 455.01 288.01 C 454.97 296.00 454.97 303.99 455.01 311.99 C 456.76 312.00 460.26 312.00 462.01 312.00 C 461.97 320.66 461.97 329.32 462.01 337.98 C 474.00 338.03 486.00 338.03 498.01 337.99 L 498.01 338.99 C 506.00 339.03 513.98 339.02 521.99 338.98 C 521.99 330.00 522.00 321.02 522.01 312.04 C 525.04 312.04 527.91 311.94 530.99 311.96 C 531.02 303.98 531.01 296.00 530.99 288.02 C 505.66 287.97 480.33 287.99 455.01 288.01 Z" />
<path fill="#937963" opacity="1.00" d=" M 342.77 172.53 C 350.44 172.12 371.70 168.47 369.30 182.09 C 359.61 193.92 338.83 196.49 326.24 188.45 C 321.55 178.40 335.16 173.96 342.77 172.53 Z" />
<path fill="#937963" opacity="1.00" d=" M 292.73 189.46 C 296.23 188.82 306.06 187.26 304.78 193.60 C 300.28 202.47 285.62 208.94 277.05 202.73 C 277.47 195.21 286.11 190.93 292.73 189.46 Z" />
<path fill="#937963" opacity="1.00" d=" M 363.92 192.50 C 370.73 192.14 388.49 189.48 385.73 201.33 C 377.28 207.48 364.73 207.51 356.29 201.32 C 353.57 195.55 359.67 193.14 363.92 192.50 Z" />
<path fill="#937963" opacity="1.00" d=" M 321.43 199.59 C 325.82 198.58 335.43 199.65 332.51 206.24 C 326.86 213.72 314.43 216.18 306.13 212.82 C 301.51 204.18 314.83 200.70 321.43 199.59 Z" />
<path fill="#000000" opacity="1.00" d=" M 455.01 288.01 C 480.33 287.99 505.66 287.97 530.99 288.02 C 531.01 296.00 531.02 303.98 530.99 311.96 C 527.91 311.94 525.04 312.04 522.01 312.04 C 522.00 321.02 521.99 330.00 521.99 338.98 C 513.98 339.02 506.00 339.03 498.01 338.99 L 498.01 337.99 C 498.00 329.33 497.99 320.67 497.98 312.02 C 485.99 311.97 474.00 311.98 462.01 312.00 C 460.26 312.00 456.76 312.00 455.01 311.99 C 454.97 303.99 454.97 296.00 455.01 288.01 Z" />
<path fill="#ffffff" opacity="1.00" d=" M 582.02 309.04 C 590.94 309.67 600.96 307.44 609.38 309.66 C 611.06 317.71 609.92 326.71 609.73 335.18 C 600.51 334.87 591.29 334.98 582.08 334.96 C 582.01 326.31 581.99 317.67 582.02 309.04 Z" />
<path fill="#ffffff" opacity="1.00" d=" M 462.01 312.00 C 474.00 311.98 485.99 311.97 497.98 312.02 C 497.99 320.67 498.00 329.33 498.01 337.99 C 486.00 338.03 474.00 338.03 462.01 337.98 C 461.97 329.32 461.97 320.66 462.01 312.00 Z" />
<path fill="#faaf40" opacity="1.00" d=" M 575.76 363.79 C 623.53 360.17 669.11 377.84 714.05 391.41 C 667.73 394.17 620.14 391.77 575.21 405.18 C 568.07 408.35 559.81 412.89 559.65 421.71 C 546.82 419.92 534.76 414.93 524.69 406.75 C 525.85 381.24 550.60 361.62 575.76 363.79 M 559.66 375.85 C 554.84 379.39 561.93 383.04 565.25 383.89 C 575.13 385.03 595.08 389.24 598.22 376.33 C 586.64 370.12 571.17 369.35 559.66 375.85 Z" />
<path fill="#ffffff" opacity="1.00" d=" M 559.66 375.85 C 571.17 369.35 586.64 370.12 598.22 376.33 C 595.08 389.24 575.13 385.03 565.25 383.89 C 561.93 383.04 554.84 379.39 559.66 375.85 Z" />
<path fill="#937963" opacity="1.00" d=" M 160.16 381.79 C 170.10 392.32 181.54 401.37 193.78 409.09 C 191.09 420.11 203.42 431.85 195.36 441.28 C 178.87 424.94 165.73 404.44 160.16 381.79 Z" />
<path fill="#f6921e" opacity="1.00" d=" M 656.35 406.34 C 668.58 403.82 681.13 403.93 693.49 402.38 C 651.75 417.97 610.01 436.87 565.04 439.99 C 547.17 439.35 519.77 429.16 524.69 406.75 C 534.76 414.93 546.82 419.92 559.65 421.71 C 562.40 422.10 565.28 422.20 568.09 422.10 C 598.09 421.27 627.31 413.26 656.35 406.34 Z" />
<path fill="#faaf40" opacity="1.00" d=" M 568.09 422.10 C 593.90 406.10 627.22 409.87 656.35 406.34 C 627.31 413.26 598.09 421.27 568.09 422.10 Z" />
<path fill="#937963" opacity="1.00" d=" M 369.85 446.74 C 411.55 429.71 442.57 482.72 484.30 473.47 C 505.75 469.35 528.59 465.31 547.17 453.30 C 559.17 456.81 571.81 456.28 584.11 455.07 C 543.54 485.13 493.20 497.94 443.68 502.68 C 389.10 508.17 332.62 505.31 280.03 488.73 C 291.70 472.68 306.85 459.50 322.78 447.81 C 337.37 456.97 355.60 455.84 369.85 446.74 Z" />
</svg>
